<?xml version="1.0" encoding="UTF-8" standalone="no"?>
<!-- Uploaded to: SVG Repo, www.svgrepo.com, Generator: SVG Repo Mixer Tools -->

<svg
   height="800px"
   width="800px"
   version="1.1"
   id="Capa_1"
   viewBox="0 0 198.204 198.204"
   xml:space="preserve"
   sodipodi:docname="steal-arrow.svg"
   inkscape:version="1.1.2 (0a00cf5339, 2022-02-04)"
   xmlns:inkscape="http://www.inkscape.org/namespaces/inkscape"
   xmlns:sodipodi="http://sodipodi.sourceforge.net/DTD/sodipodi-0.dtd"
   xmlns="http://www.w3.org/2000/svg"
   xmlns:svg="http://www.w3.org/2000/svg"><defs
   id="defs13" /><sodipodi:namedview
   id="namedview11"
   pagecolor="#ffffff"
   bordercolor="#666666"
   borderopacity="1.0"
   inkscape:pageshadow="2"
   inkscape:pageopacity="0.0"
   inkscape:pagecheckerboard="0"
   showgrid="false"
   inkscape:zoom="1.09125"
   inkscape:cx="457.27377"
   inkscape:cy="400"
   inkscape:window-width="3798"
   inkscape:window-height="2096"
   inkscape:window-x="1962"
   inkscape:window-y="27"
   inkscape:window-maximized="1"
   inkscape:current-layer="g8" />
<g
   id="g8">
	<g
   id="g6"
   transform="rotate(180,99.10099,99.10201)"
   style="fill:#fde047;fill-opacity:1">
		<g
   id="g4"
   style="fill:#fde047;fill-opacity:1">
			<path
   style="fill:#fde047;fill-opacity:1"
   d="m 114.799,168.906 c -1.582,0 -5.261,-0.716 -5.261,-7.383 V 130.899 H 8.181 c -0.279,0.043 -0.655,0.082 -1.102,0.082 -1.8,0 -3.464,-0.68 -4.688,-1.933 C 0.805,127.427 0,124.947 0,121.686 V 74.614 c 0,-6.51 4.617,-8.231 7.057,-8.231 h 100.34 V 38.317 c 0,-7.848 3.736,-9.019 5.962,-9.019 3.572,0 7.129,3.396 7.805,4.08 2.441,1.8 66.982,50.455 74.075,57.541 2.577,2.58 3.028,5.175 2.956,6.893 -0.172,4.134 -3.357,6.947 -3.715,7.258 l -71.792,59.413 c -0.778,0.851 -4.421,4.423 -7.889,4.423 z M 7.437,125.215 l 0.476,0.004 h 107.301 v 36.3 c 0,0.716 0.057,1.21 0.118,1.535 0.916,-0.437 2.426,-1.585 3.493,-2.716 l 72.01,-59.624 c 0.426,-0.372 1.646,-1.75 1.7,-3.16 0.025,-0.859 -0.401,-1.718 -1.299,-2.623 -6.811,-6.803 -73.116,-56.778 -73.782,-57.283 -1.492,-1.449 -3.26,-2.595 -4.008,-2.666 0.032,0.14 -0.361,0.981 -0.361,3.335 V 72.058 H 7.086 C 6.152,72.094 5.68,72.957 5.68,74.61 v 47.076 c 0,2.412 0.591,3.203 0.769,3.389 0.068,0.068 0.225,0.229 0.63,0.229 z"
   id="path2" />
		</g>
	</g>
</g>
</svg>
